<?xml version="1.0" encoding="utf-8"?>
<!-- Generator: Adobe Illustrator 17.1.0, SVG Export Plug-In . SVG Version: 6.00 Build 0)  -->
<!DOCTYPE svg PUBLIC "-//W3C//DTD SVG 1.1//EN" "http://www.w3.org/Graphics/SVG/1.1/DTD/svg11.dtd">
<svg version="1.1" id="Layer_1" xmlns="http://www.w3.org/2000/svg" xmlns:xlink="http://www.w3.org/1999/xlink" x="0px" y="0px"
	 viewBox="0 0 558.7 558.7" enable-background="new 0 0 558.7 558.7" xml:space="preserve">
<g>
	<path fill="#4083BB" d="M117.2,289.5c-2.1-1.7-4.5-3.2-7.4-4.5c-2.8-1.3-5.9-2.5-9.1-3.7c-2.2-0.8-4.1-1.5-5.5-2.2
		c-1.5-0.6-2.6-1.2-3.4-1.9c-0.8-0.6-1.4-1.3-1.7-2c-0.3-0.7-0.5-1.5-0.5-2.5c0-2.1,0.9-3.5,2.6-4.4c1.7-0.9,4-1.3,6.9-1.3
		c3.4,0,6.7,0.4,9.9,1.1c3.2,0.7,6.1,1.7,8.8,2.8l3.2-12.7c-2.8-1.4-6.2-2.5-10.2-3.3c-4-0.9-8.2-1.3-12.6-1.3
		c-8.6,0-15.4,1.8-20.3,5.3c-4.9,3.5-7.3,8.6-7.3,15.2c0,5.1,1.7,9.3,5.2,12.5c3.5,3.3,9,6.2,16.5,8.7c4.8,1.6,8.1,3.1,9.9,4.5
		c1.8,1.4,2.7,3,2.7,4.7c0,2.4-1,4.1-3.1,5.2c-2.1,1.1-4.7,1.6-8,1.6c-3.9,0-7.6-0.4-11-1.3c-3.4-0.9-6.4-1.9-9.1-3L70,320
		c3.6,1.6,7.5,2.8,11.8,3.6c4.2,0.8,8.5,1.2,12.7,1.2c4.6,0,8.7-0.6,12.3-1.7c3.6-1.1,6.7-2.7,9.2-4.6c2.5-2,4.5-4.3,5.8-6.9
		c1.3-2.6,2-5.5,2-8.5c0-3-0.6-5.5-1.8-7.7C121,293.2,119.3,291.2,117.2,289.5z"/>
	<path fill="#4083BB" d="M163.4,285c2.1,0,4.1,0.2,6.2,0.6c2,0.4,3.8,0.8,5.3,1.4l1.8-11.7c-2.1-1-4.5-1.7-7.3-2.3
		c-2.8-0.5-5.7-0.8-8.6-0.8c-4.8,0-9.1,0.6-12.9,1.9c-3.8,1.3-7,3.1-9.6,5.4c-2.6,2.3-4.6,5.1-6,8.3c-1.4,3.2-2.1,6.8-2.1,10.7
		s0.7,7.5,2.1,10.7c1.4,3.2,3.4,6,6,8.3c2.6,2.3,5.8,4.1,9.6,5.4c3.8,1.3,8.1,1.9,12.9,1.9c2.9,0,5.8-0.3,8.6-0.8
		c2.8-0.5,5.3-1.3,7.3-2.3l-1.8-11.7c-1.5,0.5-3.2,1-5.3,1.4c-2,0.4-4.1,0.6-6.2,0.6c-4.9,0-8.6-1.2-11.1-3.6
		c-2.5-2.4-3.7-5.7-3.7-9.8c0-4.2,1.2-7.4,3.7-9.8C154.8,286.2,158.5,285,163.4,285z"/>
	<path fill="#4083BB" d="M235.1,279.7c-2.5-2.4-5.7-4.2-9.5-5.6c-3.8-1.3-8.1-2-12.9-2s-9.2,0.7-12.9,2c-3.8,1.3-6.9,3.2-9.5,5.6
		s-4.5,5.1-5.8,8.3c-1.3,3.2-2,6.6-2,10.3s0.7,7.2,2,10.3c1.3,3.2,3.2,6,5.8,8.3c2.5,2.4,5.7,4.2,9.5,5.6c3.8,1.3,8.1,2,12.9,2
		s9.2-0.7,12.9-2c3.8-1.3,6.9-3.2,9.5-5.6c2.5-2.4,4.5-5.1,5.8-8.3c1.3-3.2,2-6.6,2-10.3s-0.7-7.2-2-10.3
		C239.6,284.8,237.6,282,235.1,279.7z M223.8,303.5c-0.4,1.7-1,3.2-1.9,4.5c-0.9,1.3-2.1,2.4-3.6,3.2c-1.5,0.8-3.4,1.2-5.6,1.2
		c-2.2,0-4.1-0.4-5.6-1.2c-1.5-0.8-2.7-1.9-3.6-3.2c-0.9-1.3-1.5-2.8-1.9-4.5c-0.4-1.7-0.6-3.4-0.6-5.2c0-1.8,0.2-3.5,0.6-5.2
		c0.4-1.7,1-3.2,1.9-4.5c0.9-1.3,2.1-2.4,3.6-3.2c1.5-0.8,3.4-1.2,5.6-1.2c2.2,0,4.1,0.4,5.6,1.2c1.5,0.8,2.7,1.9,3.6,3.2
		c0.9,1.3,1.5,2.8,1.9,4.5c0.4,1.7,0.6,3.4,0.6,5.2C224.4,300.1,224.2,301.9,223.8,303.5z"/>
	<path fill="#4083BB" d="M255.4,305.8c0,2.6,0.4,5.1,1.1,7.4c0.7,2.3,1.9,4.3,3.5,6c1.6,1.7,3.6,3,6.1,4c2.5,1,5.6,1.5,9.2,1.5
		c2.7,0,5.4-0.2,8.1-0.6c2.7-0.4,5-1,6.8-1.8l-1.3-11.5c-1.3,0.3-2.7,0.6-4.1,0.8c-1.4,0.2-2.8,0.3-4.2,0.3c-2.5,0-4.3-0.6-5.3-1.7
		c-1-1.1-1.4-2.7-1.4-4.7v-19.7h16.3v-12.6h-16.3v-13.2h-18.5v13.2h-8.7v12.6h8.7V305.8z"/>
	<g>
		<g>
			<path fill="#4083BB" d="M93.5,157.5L0,200.2v28l69.9,31.9c1.4-2,3.1-3.7,5.2-5.2c5.7-4.1,13.5-6.2,23.2-6.2
				c1.7,0,3.3,0.1,4.9,0.2l1-2.3l-73.8-32.4l73.8-32.4L93.5,157.5z M171.5,176.6c8.6-7.8,20.4-11.7,35.3-11.7
				c5.5,0,11.1,0.6,16.8,1.9c5.6,1.2,10.6,2.7,15,4.5l5.3-26.3c-5.5-2.8-12.2-4.9-19.8-6.3c-7.7-1.4-15.3-2.2-22.9-2.2
				c-12.8,0-24.2,1.9-33.9,5.7c-9.8,3.8-18,9.1-24.5,15.8c-6.6,6.7-11.5,14.7-14.9,23.9c-3.4,9.2-5,19.3-5,30.2
				c0,10.9,1.7,21,5,30.2c3.4,9.2,8.3,17.2,14.9,23.9c1.1,1.1,2.3,2.2,3.5,3.2c0.1,0,0.2-0.1,0.3-0.1c4.3-1.4,9.2-2.2,14.5-2.2
				c3.2,0,6.4,0.3,9.6,0.9c3.2,0.6,6,1.5,8.5,2.6c2,0.9,3.2,3.1,2.8,5.3l-1.5,9.6c0,0,0,0,0,0c1.6-3.6,3.8-6.9,6.8-9.6
				c3-2.8,6.8-5.1,11.2-6.6c4.3-1.5,9.2-2.3,14.6-2.3c5.4,0,10.3,0.8,14.6,2.3c4.4,1.6,8.2,3.8,11.2,6.6c1.2,1.1,2.3,2.3,3.2,3.6
				v-6.5c0-0.7,0.1-1.4,0.4-2l-3.7-18.4c-4.4,1.8-9.4,3.3-15,4.5c-5.6,1.2-11.2,1.9-16.8,1.9c-14.9,0-26.6-3.9-35.3-11.7
				c-8.6-7.8-12.9-19.6-12.9-35.4C158.6,196.2,162.9,184.4,171.5,176.6z M298.5,253.2c-3.4-3.9-8.2-5.9-14.7-5.9
				c-6.4,0-11.3,2-14.7,5.9c-0.5,0.6-0.9,1.2-1.3,1.8h6.1c2.8,0,5,2.2,5,5v8.2h11.3c0.6,0,1.1,0.1,1.6,0.3c0.5-0.2,1-0.3,1.6-0.3
				h3.7v-8.2c0-2.1,1.3-3.8,3.1-4.6C299.6,254.6,299.1,253.9,298.5,253.2z"/>
		</g>
	</g>
	<path fill="#4083BB" d="M330,324c2.7-0.4,5-1,6.8-1.8l-1.3-11.5c-1.3,0.3-2.7,0.6-4.1,0.8c-1.4,0.2-2.8,0.3-4.2,0.3
		c-2.5,0-4.3-0.6-5.3-1.7c-1-1.1-1.4-2.7-1.4-4.7v-19.7h16.3v-12.6h-16.3v-13.2H302v13.2h-8.7v12.6h8.7v20.1c0,2.6,0.4,5.1,1.1,7.4
		c0.7,2.3,1.9,4.3,3.5,6c1.6,1.7,3.6,3,6.1,4c2.5,1,5.6,1.5,9.2,1.5C324.6,324.6,327.3,324.4,330,324z"/>
	<g>
		<path fill="#4083BB" d="M72.1,367c-2.1-1.7-4.5-3.2-7.4-4.5c-2.8-1.3-5.9-2.5-9.1-3.7c-2.2-0.8-4.1-1.5-5.5-2.2
			c-1.5-0.6-2.6-1.2-3.4-1.9s-1.4-1.3-1.7-2c-0.3-0.7-0.5-1.5-0.5-2.5c0-2.1,0.9-3.5,2.6-4.4s4-1.3,6.9-1.3c3.4,0,6.7,0.4,9.9,1.1
			c3.2,0.7,6.1,1.7,8.8,2.8l3.2-12.7c-2.8-1.4-6.2-2.5-10.2-3.3c-4-0.9-8.2-1.3-12.6-1.3c-8.6,0-15.4,1.8-20.3,5.3
			c-4.9,3.5-7.3,8.6-7.3,15.2c0,5.1,1.7,9.3,5.2,12.5c3.5,3.3,9,6.2,16.5,8.7c4.8,1.6,8.1,3.1,9.9,4.5c1.8,1.4,2.7,3,2.7,4.7
			c0,2.4-1,4.1-3.1,5.2c-2.1,1.1-4.7,1.6-8,1.6c-3.9,0-7.6-0.4-11-1.3c-3.4-0.9-6.4-1.9-9.1-3l-3.8,12.9c3.6,1.6,7.5,2.8,11.8,3.6
			c4.2,0.8,8.5,1.2,12.7,1.2c4.6,0,8.7-0.6,12.3-1.7c3.6-1.1,6.7-2.7,9.2-4.6c2.5-2,4.5-4.3,5.8-6.9c1.3-2.6,2-5.5,2-8.5
			c0-3-0.6-5.5-1.8-7.7C75.8,370.7,74.2,368.7,72.1,367z"/>
		<path fill="#4083BB" d="M118.3,362.5c2.1,0,4.1,0.2,6.2,0.6c2,0.4,3.8,0.8,5.3,1.4l1.8-11.7c-2.1-1-4.5-1.7-7.3-2.3
			c-2.8-0.5-5.7-0.8-8.6-0.8c-4.8,0-9.1,0.6-12.9,1.9c-3.8,1.3-7,3.1-9.6,5.4c-2.6,2.3-4.6,5.1-6,8.3c-1.4,3.2-2.1,6.8-2.1,10.7
			s0.7,7.5,2.1,10.7c1.4,3.2,3.4,6,6,8.3c2.6,2.3,5.8,4.1,9.6,5.4c3.8,1.3,8.1,1.9,12.9,1.9c2.9,0,5.8-0.3,8.6-0.8
			c2.8-0.5,5.3-1.3,7.3-2.3l-1.8-11.7c-1.5,0.5-3.2,1-5.3,1.4c-2,0.4-4.1,0.6-6.2,0.6c-4.9,0-8.6-1.2-11.1-3.6
			c-2.5-2.4-3.7-5.7-3.7-9.8c0-4.2,1.2-7.4,3.7-9.8C109.7,363.6,113.4,362.5,118.3,362.5z"/>
		<path fill="#4083BB" d="M190.9,357.3c-1.7-2.3-3.8-4.2-6.4-5.6c-2.6-1.4-5.8-2.1-9.6-2.1c-3,0-5.8,0.6-8.5,1.7
			c-2.7,1.1-4.9,2.9-6.6,5.3v-28.2h-18.5v72.7h18.5v-34.6c0.8-1.1,2-2,3.4-2.8c1.4-0.8,3.1-1.1,5-1.1c3,0,5.2,1,6.7,2.9
			c1.5,2,2.2,5,2.2,9.2v26.4h18.5V375c0-3.4-0.4-6.6-1.1-9.6C193.8,362.3,192.6,359.6,190.9,357.3z"/>
		<path fill="#4083BB" d="M250.7,355.1c-4.5-3.7-10.7-5.5-18.6-5.5c-4.3,0-8.3,0.4-11.9,1.3c-3.7,0.9-6.8,2-9.5,3.3l3.3,11.4
			c2.1-1,4.4-1.7,6.9-2.3c2.5-0.5,5.1-0.8,7.8-0.8c6.8,0,10.3,2.7,10.3,8.2v1.6c-1.9,0.1-4.1,0.1-6.6,0.2c-2.5,0.1-4.9,0.2-7.1,0.3
			c-6,0.4-10.6,1.8-13.9,4.2c-3.3,2.4-4.9,5.9-4.9,10.6c0,2,0.4,3.9,1.1,5.6c0.7,1.8,1.8,3.3,3.1,4.6c1.3,1.3,3,2.3,5,3.1
			c2,0.8,4.3,1.1,6.8,1.1c3.6,0,6.9-0.6,10-1.8c3-1.2,5.4-2.6,7.2-4.2v4.9h17.8v-29.5C257.4,364.3,255.1,358.8,250.7,355.1z
			 M238.9,389c-1.3,0.7-2.8,1.2-4.3,1.6c-1.6,0.4-3.3,0.6-5,0.6c-1.8,0-3.1-0.4-4.1-1.1c-1-0.8-1.4-1.8-1.4-3c0-2.7,1.9-4.3,5.7-4.7
			c1.4-0.1,2.8-0.3,4.3-0.5c1.5-0.2,3.1-0.3,5-0.5V389z"/>
		<path fill="#4083BB" d="M321.1,356.5c-2-2.2-4.4-3.9-7.2-5.1c-2.8-1.2-5.7-1.8-8.9-1.8c-7.6,0-13.3,2.3-17,7v-6h-17.7v71.7h18.5
			v-21.4c1.2,0.3,2.6,0.6,4.2,0.9c1.5,0.2,3.3,0.4,5.3,0.4c4,0,7.8-0.6,11.3-1.7c3.5-1.1,6.6-2.8,9.3-5.1c2.7-2.3,4.8-5.1,6.3-8.4
			c1.6-3.3,2.4-7.2,2.4-11.7c0-3.9-0.6-7.4-1.7-10.6C324.8,361.5,323.2,358.8,321.1,356.5z M306,386c-2.2,2.6-5.7,4-10.5,4
			c-1.4,0-2.6-0.1-3.7-0.2c-1.1-0.1-2-0.3-2.9-0.6v-23.4c1.2-1.2,2.5-2,4-2.6c1.5-0.6,3.3-0.9,5.4-0.9c3.8,0,6.5,1.3,8.3,3.8
			c1.7,2.5,2.6,5.6,2.6,9.3C309.2,379.8,308.1,383.3,306,386z"/>
		<polygon fill="#4083BB" points="393.2,350.6 373.3,350.6 356.3,374.2 356.3,328.4 337.8,328.4 337.8,401.1 356.3,401.1 
			356.3,376.7 374.5,401.1 395.6,401.1 375,375.4 		"/>
		<path fill="#4083BB" d="M426.7,349.6c-4.4,0-8.3,0.6-11.9,1.9c-3.5,1.2-6.6,3-9.1,5.3c-2.5,2.3-4.4,5.1-5.8,8.4
			c-1.3,3.3-2,7-2,11.1c0,3.8,0.7,7.3,2,10.5c1.3,3.2,3.2,5.9,5.8,8.1c2.5,2.3,5.7,4,9.5,5.3c3.8,1.3,8.1,1.9,13,1.9
			c3.9,0,7.7-0.3,11.4-1c3.7-0.7,6.9-1.7,9.9-3l-2.3-10.6c-2.2,0.9-4.9,1.6-7.9,2c-3,0.4-5.9,0.7-8.7,0.7c-4.5,0-7.9-0.9-10.1-2.8
			c-2.2-1.9-3.4-4.4-3.5-7.5h32.8c0.7-3,1-5.7,1-8.3c0-6.9-2.2-12.2-6.5-16.1C439.9,351.5,434.1,349.6,426.7,349.6z M433.4,369.6
			H417c0-3,0.8-5.3,2.4-7c1.6-1.7,3.8-2.5,6.8-2.5c2.4,0,4.2,0.7,5.5,2.2c1.3,1.5,2,3.3,2,5.5C433.6,368.4,433.5,369,433.4,369.6z"
			/>
		<path fill="#4083BB" d="M492.8,350.2c-3.6,0-6.5,0.8-8.8,2.4c-2.2,1.6-3.9,3.7-5,6.5v-8.4h-17.9v50.5h18.5v-31.3
			c3-3.3,8.2-4.9,15.5-4.9h2.2l0.5-14c-0.8-0.2-1.5-0.4-2.3-0.5C494.8,350.3,493.9,350.2,492.8,350.2z"/>
		<polygon fill="#4083BB" points="509.5,341.1 503.8,352.6 542.7,367.8 503.8,383.1 509.5,394.5 558.7,374.4 558.7,361.2 		"/>
	</g>
</g>
</svg>
