<?xml version="1.0" encoding="utf-8"?>
<!-- Generator: Adobe Illustrator 17.1.0, SVG Export Plug-In . SVG Version: 6.00 Build 0)  -->
<!DOCTYPE svg PUBLIC "-//W3C//DTD SVG 1.1//EN" "http://www.w3.org/Graphics/SVG/1.1/DTD/svg11.dtd">
<svg version="1.1" id="Layer_1" xmlns:sketch="http://www.bohemiancoding.com/sketch/ns"
	 xmlns="http://www.w3.org/2000/svg" xmlns:xlink="http://www.w3.org/1999/xlink" x="0px" y="0px" viewBox="0 0 44 40"
	 enable-background="new 0 0 44 40" xml:space="preserve">
<title>LinkedIn-black</title>
<desc>Created with Sketch.</desc>
<g id="Icons" sketch:type="MSPage">
	<g id="Black" transform="translate(-702.000000, -305.000000)" sketch:type="MSArtboardGroup">
		<g id="Line-2" transform="translate(201.000000, 300.000000)" sketch:type="MSLayerGroup">
			<path id="LinkedIn" sketch:type="MSShapeGroup" fill="#FFFFFF" d="M545,45h-9.7V30.9c0-3.7-1.5-6.2-4.9-6.2c-2.6,0-4,1.7-4.6,3.3
				c-0.2,0.6-0.2,1.4-0.2,2.2V45h-9.6c0,0,0.1-24.9,0-27.2h9.6v4.3c0.6-1.9,3.6-4.5,8.6-4.5c6.1,0,10.9,3.9,10.9,12.3V45L545,45z
				 M506.2,14.4L506.2,14.4c-3.2,0-5.2-2.1-5.2-4.7c0-2.7,2.1-4.7,5.2-4.7c3.2,0,5.1,2,5.2,4.7C511.4,12.3,509.4,14.4,506.2,14.4
				L506.2,14.4L506.2,14.4z M502.1,17.8h8.6V45h-8.6V17.8L502.1,17.8z"/>
		</g>
	</g>
</g>
</svg>
