<?xml version="1.0" encoding="utf-8"?>
<!-- Generator: Adobe Illustrator 17.1.0, SVG Export Plug-In . SVG Version: 6.00 Build 0)  -->
<!DOCTYPE svg PUBLIC "-//W3C//DTD SVG 1.1//EN" "http://www.w3.org/Graphics/SVG/1.1/DTD/svg11.dtd">
<svg version="1.1" id="Layer_1" xmlns="http://www.w3.org/2000/svg" xmlns:xlink="http://www.w3.org/1999/xlink" x="0px" y="0px"
	 viewBox="0 0 48 48" enable-background="new 0 0 48 48" xml:space="preserve">
<path fill="none" d="M0,0h48v48H0V0z"/>
<path d="M34,6H14c-2.2,0-4,1.8-4,4v28c0,2.2,1.8,4,4,4h20c2.2,0,4-1.8,4-4V10C38,7.8,36.2,6,34,6z M34,38H14V10h20V38z"/>
<path d="M16.4,20.8v1.5h15.2v-1.5H16.4z M16.4,17v1.5h15.2V17H16.4z M16.4,13.2v1.5h15.2v-1.5H16.4z"/>
<path d="M16.4,32.2v1.5h15.2v-1.5H16.4z M16.4,28.4v1.5h15.2v-1.5H16.4z M16.4,24.6v1.5h15.2v-1.5H16.4z"/>
</svg>
